<svg width="42" height="42" viewBox="0 0 42 42" fill="none" xmlns="http://www.w3.org/2000/svg">
<path fill-rule="evenodd" clip-rule="evenodd" d="M0 4.66667C0 3.42899 0.491665 2.242 1.36683 1.36683C2.242 0.491665 3.42899 0 4.66667 0H18.6667V18.6667H0V4.66667ZM18.6667 23.3333H0V37.3333C0 38.571 0.491665 39.758 1.36683 40.6332C2.242 41.5083 3.42899 42 4.66667 42H18.6667V23.3333ZM23.3333 42H37.3333C38.571 42 39.758 41.5083 40.6332 40.6332C41.5083 39.758 42 38.571 42 37.3333V30.3333H23.3333V42ZM23.3333 25.6667H42V16.3333H23.3333V25.6667ZM23.3333 11.6667H42V4.66667C42 3.42899 41.5083 2.242 40.6332 1.36683C39.758 0.491665 38.571 0 37.3333 0H23.3333V11.6667Z" fill="#F48925"/>
</svg>
