<svg width="42" height="42" viewBox="0 0 42 42" fill="none" xmlns="http://www.w3.org/2000/svg">
<path d="M37.0839 11.5181C38.8427 14.5045 39.7357 17.9215 39.6629 21.3865C39.5902 24.8516 38.5545 28.2281 36.6719 31.138C34.7892 34.048 32.1339 36.3765 29.0031 37.8631C25.8722 39.3497 22.3895 39.9357 18.9445 39.5554M4.91653 30.4834C3.1577 27.497 2.2647 24.0801 2.33746 20.615C2.41022 17.1499 3.44588 13.7734 5.32853 10.8635C7.21117 7.95356 9.8665 5.62498 12.9973 4.13838C16.1282 2.65178 19.6109 2.06582 23.0559 2.44609" stroke="#6ABECD" stroke-width="4.66667" stroke-linecap="round" stroke-linejoin="round"/>
<path d="M30.9 11.1009C32.7225 12.9234 35.6772 12.9234 37.4997 11.1009C39.3221 9.27846 39.3221 6.32369 37.4997 4.50125C35.6772 2.6788 32.7225 2.6788 30.9 4.50125C29.0776 6.32369 29.0776 9.27846 30.9 11.1009Z" fill="#6ABECD" stroke="#6ABECD" stroke-width="4.66667" stroke-linecap="round" stroke-linejoin="round"/>
<path d="M4.50071 37.5002C6.32315 39.3227 9.27792 39.3227 11.1004 37.5002C12.9228 35.6778 12.9228 32.723 11.1004 30.9006C9.27792 29.0781 6.32315 29.0781 4.50071 30.9006C2.67826 32.723 2.67826 35.6778 4.50071 37.5002Z" fill="#6ABECD" stroke="#6ABECD" stroke-width="4.66667" stroke-linecap="round" stroke-linejoin="round"/>
<path d="M17.7004 24.3006C19.5228 26.123 22.4776 26.123 24.3 24.3006C26.1225 22.4781 26.1225 19.5234 24.3 17.7009C22.4776 15.8785 19.5228 15.8785 17.7004 17.7009C15.8779 19.5234 15.8779 22.4781 17.7004 24.3006Z" fill="#6ABECD" stroke="#6ABECD" stroke-width="4.66667" stroke-linecap="round" stroke-linejoin="round"/>
</svg>
