<svg width="42" height="42" viewBox="0 0 42 42" fill="none" xmlns="http://www.w3.org/2000/svg">
<path fill-rule="evenodd" clip-rule="evenodd" d="M14.0001 21H8.70812C8.19447 21.8897 7.40162 22.585 6.45252 22.9781C5.50343 23.3712 4.45113 23.4402 3.45884 23.1743C2.46656 22.9084 1.58973 22.3226 0.964351 21.5076C0.338975 20.6925 0 19.694 0 18.6667C0 17.6394 0.338975 16.6408 0.964351 15.8258C1.58973 15.0108 2.46656 14.4249 3.45884 14.159C4.45113 13.8931 5.50343 13.9621 6.45252 14.3552C7.40162 14.7484 8.19447 15.4437 8.70812 16.3333H14.0001V4.66667C14.0001 3.42899 14.4918 2.242 15.367 1.36683C16.2421 0.491665 17.4291 0 18.6668 0H37.3335C38.5711 0 39.7581 0.491665 40.6333 1.36683C41.5085 2.242 42.0001 3.42899 42.0001 4.66667V37.3333C42.0001 38.571 41.5085 39.758 40.6333 40.6332C39.7581 41.5083 38.5711 42 37.3335 42H18.6668C17.4291 42 16.2421 41.5083 15.367 40.6332C14.4918 39.758 14.0001 38.571 14.0001 37.3333V21ZM18.6668 21V37.3333H37.3335V4.66667H18.6668V16.3333H23.9588C24.4724 15.4437 25.2653 14.7484 26.2144 14.3552C27.1635 13.9621 28.2158 13.8931 29.2081 14.159C30.2003 14.4249 31.0772 15.0108 31.7026 15.8258C32.3279 16.6408 32.6669 17.6394 32.6669 18.6667C32.6669 19.694 32.3279 20.6925 31.7026 21.5076C31.0772 22.3226 30.2003 22.9084 29.2081 23.1743C28.2158 23.4402 27.1635 23.3712 26.2144 22.9781C25.2653 22.585 24.4724 21.8897 23.9588 21H18.6668Z" fill="#CF6390"/>
</svg>
