<svg width="28" height="27" viewBox="0 0 28 27" fill="none" xmlns="http://www.w3.org/2000/svg">
<path fill-rule="evenodd" clip-rule="evenodd" d="M27.0489 1.31313C26.0171 -0.652474 22.6235 -0.0350737 19.6905 0.750326C6.9407 5.44873 2.4299 14.9968 0.845103 20.685C0.766703 20.8278 0.719103 20.9916 0.714903 21.1666C0.0877033 23.5802 0.00230334 25.1888 0.000903335 25.242C-0.0228967 25.8202 0.426503 26.3088 1.0047 26.3326C1.0201 26.334 1.0355 26.334 1.0509 26.334C1.6095 26.334 2.0743 25.893 2.0995 25.3288C2.1065 25.158 2.1709 23.9834 2.5671 22.2278C6.0783 22.0794 9.61331 20.7718 13.0853 18.3302C13.3569 18.1398 13.5221 17.8318 13.5319 17.5014C13.5417 17.1696 13.3933 16.8532 13.1343 16.6488L11.5327 15.3804L16.7883 14.8652C17.0025 14.8442 17.2041 14.7588 17.3679 14.6188C17.4813 14.5236 20.1567 12.2332 22.7019 9.56333C26.5729 5.50333 27.9127 2.95953 27.0489 1.31313Z" fill="#335CFF"/>
</svg>
